<?xml version="1.0" encoding="UTF-8"?>
<svg width="20px" height="20px" viewBox="0 0 20 20" version="1.1" xmlns="http://www.w3.org/2000/svg" xmlns:xlink="http://www.w3.org/1999/xlink">
    <g stroke="none" stroke-width="1" fill="none" fill-rule="evenodd" opacity="0.611830357">
        <g transform="translate(-764.000000, -737.000000)" fill="#2E2E2E" fill-rule="nonzero">
            <g id="search" transform="translate(764.000000, 737.000000)">
                <path d="M19.8245614,18.2807018 L15.0916179,13.5477583 C15.0019493,13.4580897 14.8849903,13.411306 14.7602339,13.411306 L14.245614,13.411306 C15.4736842,11.9883041 16.2183236,10.1364522 16.2183236,8.10916179 C16.2183236,3.62962963 12.588694,0 8.10916179,0 C3.62962963,0 0,3.62962963 0,8.10916179 C0,12.588694 3.62962963,16.2183236 8.10916179,16.2183236 C10.1364522,16.2183236 11.9883041,15.4736842 13.411306,14.245614 L13.411306,14.7602339 C13.411306,14.8849903 13.4619883,15.0019493 13.5477583,15.0916179 L18.2807018,19.8245614 C18.4639376,20.0077973 18.7602339,20.0077973 18.9434698,19.8245614 L19.8245614,18.9434698 C20.0077973,18.7602339 20.0077973,18.4639376 19.8245614,18.2807018 Z M8.10916179,14.3469786 C4.66276803,14.3469786 1.87134503,11.5555556 1.87134503,8.10916179 C1.87134503,4.66276803 4.66276803,1.87134503 8.10916179,1.87134503 C11.5555556,1.87134503 14.3469786,4.66276803 14.3469786,8.10916179 C14.3469786,11.5555556 11.5555556,14.3469786 8.10916179,14.3469786 Z" id="Shape"></path>
            </g>
        </g>
    </g>
</svg>